<svg id="Group_1" data-name="Group 1" xmlns="http://www.w3.org/2000/svg" viewBox="0 0 144.786 24">
  <defs>
    <style>
      .cls-1 {
        fill: #e21838;
      }
    </style>
  </defs>
  <path id="Path_1" data-name="Path 1" class="cls-1" d="M7.315,28.39C3.083,28.39.181,25.911,0,22.828H4.232c.121,1.27,1.33,2.237,3.023,2.237s2.539-.725,2.539-1.693C9.793,20.349.3,22.284.3,16.118c0-2.781,2.479-5.018,6.65-5.018,4.05,0,6.529,2.237,6.771,5.562H9.673c-.121-1.33-1.149-2.176-2.841-2.176-1.572,0-2.418.6-2.418,1.632,0,3.023,9.31,1.149,9.431,7.315C13.9,26.213,11.426,28.39,7.315,28.39Z" transform="translate(0 -4.39)"/>
  <path id="Path_2" data-name="Path 2" class="cls-1" d="M51.416,18.838c0-2.66-1.511-4.05-3.748-4.05-2.3,0-3.748,1.39-3.748,4.05v9.249H39.688V18.838c0-2.66-1.511-4.05-3.748-4.05-2.3,0-3.809,1.39-3.809,4.05v9.249H27.9V11.342h4.232V13.4a6.181,6.181,0,0,1,4.957-2.3,6.4,6.4,0,0,1,5.924,3.2,6.6,6.6,0,0,1,5.743-3.2c4.05,0,6.892,2.539,6.892,7.194v9.854H51.416Z" transform="translate(-11.033 -4.39)"/>
  <path id="Path_3" data-name="Path 3" class="cls-1" d="M85.517,11a6.684,6.684,0,0,1,5.562,2.66V11.242h4.292V27.987H91.079V25.509a6.646,6.646,0,0,1-5.562,2.72c-4.232,0-7.617-3.506-7.617-8.705S81.225,11,85.517,11Zm1.088,3.748c-2.3,0-4.413,1.693-4.413,4.9s2.176,5.018,4.413,5.018c2.358,0,4.474-1.753,4.474-4.957S88.963,14.748,86.605,14.748Z" transform="translate(-30.807 -4.35)"/>
  <path id="Path_4" data-name="Path 4" class="cls-1" d="M117.732,28.087H113.5V11.342h4.232v2.6A5.817,5.817,0,0,1,122.87,11.1v4.413h-1.149c-2.539,0-4.05.967-4.05,4.232v8.343Z" transform="translate(-44.885 -4.39)"/>
  <path id="Path_5" data-name="Path 5" class="cls-1" d="M133.495,12.278H131.5V8.771h1.995V4.6h4.232V8.771h3.748v3.506h-3.748v8.1c0,1.149.484,1.632,1.814,1.632h1.995v3.567h-2.66c-3.2,0-5.38-1.33-5.38-5.2Z" transform="translate(-52.004 -1.819)"/>
  <path id="Path_6" data-name="Path 6" class="cls-1" d="M153.1,2.2h4.232V24.568H153.1Z" transform="translate(-60.546 -0.87)"/>
  <path id="Path_7" data-name="Path 7" class="cls-1" d="M166.3,2.479a2.6,2.6,0,0,1,5.2,0,2.518,2.518,0,0,1-2.6,2.479A2.482,2.482,0,0,1,166.3,2.479Zm.423,4.474h4.232V23.7h-4.232Z" transform="translate(-65.766)"/>
  <path id="Path_8" data-name="Path 8" class="cls-1" d="M192.628,18.878c0-2.72-1.511-4.171-3.748-4.171-2.3,0-3.748,1.451-3.748,4.171v9.249H180.9V11.381h4.232V13.5a6.341,6.341,0,0,1,5.078-2.3c3.929,0,6.71,2.539,6.71,7.194v9.854h-4.232v-9.37Z" transform="translate(-71.54 -4.429)"/>
  <path id="Path_9" data-name="Path 9" class="cls-1" d="M214,2.2h4.232V14.956l5.622-7.134h5.5l-7.375,8.4,7.436,8.343h-5.5l-5.683-7.134v7.134H214Z" transform="translate(-84.63 -0.87)"/>
</svg>
